# xmcd CD database file
#
# Track frame offsets:
#	150
#	18850
#	28798
#	40661
#	57594
#	72614
#	84358
#	104263
#	119530
#	142449
#	165131
#	174504
#	188907
#	209202
#	225328
#	235971
#	246683
#
# Disc length: 3437 seconds
#
# Revision: 0
# Processed by: cddbd v1.5.2PL0 Copyright (c) Steve Scherf et al.
# Submitted via: CDex 1.79
#
DISCID=f70d6b11
DTITLE=Onzy Matthews - Mosaic Select: Onzy Matthews [Disc 2]
DYEAR=2007
DGENRE=Jazz
TTITLE0=Blues With A Touch Of Elegance
TTITLE1=Flamingo
TTITLE2=Pensive
TTITLE3=Feels Like I've Got The Blues
TTITLE4=Dallas Blues
TTITLE5=Somethin's Cookin'
TTITLE6=I Should Care
TTITLE7=Blues Non-Stop
TTITLE8=I Cover The Waterfront
TTITLE9=Satin Doll
TTITLE10=Burnin'
TTITLE11=Blues Non-Stop (first version)
TTITLE12=I Cover The Waterfront (first version)
TTITLE13=Dallas Blues (first version)
TTITLE14=Somethin's Cookin' (first version)
TTITLE15=Lefty Louie Blues
TTITLE16=Blues Non-Stop (vocal version)
EXTD=YEAR: 2007
EXTT0=
EXTT1=
EXTT2=
EXTT3=
EXTT4=
EXTT5=
EXTT6=
EXTT7=
EXTT8=
EXTT9=
EXTT10=
EXTT11=
EXTT12=
EXTT13=
EXTT14=
EXTT15=
EXTT16=
PLAYORDER=
